<?xml version="1.0" encoding="UTF-8"?>
<svg xmlns="http://www.w3.org/2000/svg" onmouseup="{ if(window.parent.document.onmouseup) window.parent.document.onmouseup(arguments[0]);}" inkscape:version="1.0.1 (3bc2e813f5, 2020-09-07)" sodipodi:docname="Info_KAG_DarkBlue.svg" version="1.1" width="36" viewBox="0 0 36 36" id="S_Info_18_N_2x" height="36" data-name="S_Info_18_N@2x" xmlns:inkscape="http://www.inkscape.org/namespaces/inkscape" xmlns:sodipodi="http://sodipodi.sourceforge.net/DTD/sodipodi-0.dtd" xmlns:svg="http://www.w3.org/2000/svg" xmlns:rdf="http://www.w3.org/1999/02/22-rdf-syntax-ns#" xmlns:cc="http://creativecommons.org/ns#" xmlns:dc="http://purl.org/dc/elements/1.1/"><metadata id="metadata11"><rdf:RDF><cc:Work rdf:about=""><dc:format/><dc:type rdf:resource="http://purl.org/dc/dcmitype/StillImage"/><dc:title/></cc:Work></rdf:RDF></metadata><sodipodi:namedview inkscape:current-layer="S_Info_18_N_2x" inkscape:window-maximized="1" inkscape:window-y="-8" inkscape:window-x="-8" inkscape:cy="18" inkscape:cx="8.5714286" inkscape:zoom="20.416667" showgrid="false" id="namedview9" inkscape:window-height="1137" inkscape:window-width="1920" inkscape:pageshadow="2" inkscape:pageopacity="0" guidetolerance="10" gridtolerance="10" objecttolerance="10" borderopacity="1" bordercolor="#666666" pagecolor="#ffffff"/><defs id="defs4"><style id="style2">
      .fill {
        fill: #707070;
      }

      
    </style></defs><path data-cppathid="10000" style="fill:#114c8e;fill-opacity:1" id="path6" d="M18,2A16,16,0,1,0,34,18,16,16,0,0,0,18,2Zm-.3,4.3a2.718,2.718,0,0,1,2.864,2.824A2.664,2.664,0,0,1,17.7,11.987a2.705,2.705,0,0,1-2.864-2.864A2.717,2.717,0,0,1,17.7,6.3ZM22,27a1,1,0,0,1-1,1H15a1,1,0,0,1-1-1V25a1,1,0,0,1,1-1h1V18H15a1,1,0,0,1-1-1V15a1,1,0,0,1,1-1h4a1,1,0,0,1,1,1v9h1a1,1,0,0,1,1,1Z" class="fill"/></svg>