<?xml version="1.0" encoding="UTF-8"?>
<svg xmlns="http://www.w3.org/2000/svg" onmouseup="{ if(window.parent.document.onmouseup) window.parent.document.onmouseup(arguments[0]);}" inkscape:version="1.0.2 (e86c870879, 2021-01-15, custom)" sodipodi:docname="S_Portrait_18_N2x.svg" version="1.1" width="36" viewBox="0 0 36 36" id="S_Portrait_18_N_2x" height="36" data-name="S_Portrait_18_N@2x" xmlns:inkscape="http://www.inkscape.org/namespaces/inkscape" xmlns:sodipodi="http://sodipodi.sourceforge.net/DTD/sodipodi-0.dtd" xmlns:svg="http://www.w3.org/2000/svg" xmlns:rdf="http://www.w3.org/1999/02/22-rdf-syntax-ns#" xmlns:cc="http://creativecommons.org/ns#" xmlns:dc="http://purl.org/dc/elements/1.1/"><metadata id="metadata13"><rdf:RDF><cc:Work rdf:about=""><dc:format/><dc:type rdf:resource="http://purl.org/dc/dcmitype/StillImage"/></cc:Work></rdf:RDF></metadata><sodipodi:namedview inkscape:current-layer="S_Portrait_18_N_2x" inkscape:window-maximized="1" inkscape:window-y="-8" inkscape:window-x="-8" inkscape:cy="18" inkscape:cx="18" inkscape:zoom="23.611111" showgrid="false" id="namedview11" inkscape:window-height="1017" inkscape:window-width="1920" inkscape:pageshadow="2" inkscape:pageopacity="0" guidetolerance="10" gridtolerance="10" objecttolerance="10" borderopacity="1" bordercolor="#666666" pagecolor="#ffffff"/><defs id="defs4"><style id="style2">
      .fill {
        fill: #6e6e6e;
      }

      
    </style></defs><circle data-cppathid="10000" style="fill:#000080" r="3.5" id="circle6" cy="11" cx="18" class="fill"/><path data-cppathid="10001" style="fill:#000080" id="path8" d="M31,2H5A1,1,0,0,0,4,3V33a1,1,0,0,0,1,1H31a1,1,0,0,0,1-1V3A1,1,0,0,0,31,2ZM30,32H24V28a2,2,0,0,0,2-2V20a4,4,0,0,0-4-4H14a4,4,0,0,0-4,4v6a2,2,0,0,0,2,2v4H6V4H30Z" class="fill"/></svg>